# AST/ASF file generated using VICON BodyLanguage
# -----------------------------------------------
:version 1.10
:name VICON
:units
  mass 1.0
  length 0.45
  angle deg
:documentation
   .ast/.asf automatically generated from VICON data using
   VICON BodyBuilder and BodyLanguage model FoxedUp or BRILLIANT.MOD
:root
   order TX TY TZ RX RY RZ
   axis XYZ
   position 0 0 0  
   orientation 0 0 0 
:bonedata
  begin
     id 1 
     name lhipjoint
     direction 0.623529 -0.717805 0.309788 
     length 2.23224 
     axis 0 0 0  XYZ
  end
  begin
     id 2 
     name lfemur
     direction 0.34202 -0.939693 0  
     length 7.11402  
     axis 0 0 20  XYZ
    dof rx ry rz
    limits (-160.0 20.0)
           (-70.0 70.0)
           (-60.0 70.0)
  end
  begin
     id 3 
     name ltibia
     direction 0.34202 -0.939693 0   
     length 6.78496   
     axis 0 0 20   XYZ
    dof rx
    limits (-10.0 170.0)
  end
  begin
     id 4 
     name lfoot
     direction 0.125078 -0.343648 0.930732   
     length 1.84054   
     axis -90 7.62852e-016 20   XYZ
    dof rx rz
    limits (-45.0 90.0)
           (-70.0 20.0)
  end
  begin
     id 5 
     name ltoes
     direction 1.53565e-011 -4.21893e-011 1   
     length 0.916474   
     axis -90 7.62852e-016 20   XYZ
    dof rx
    limits (-90.0 20.0)
  end
  begin
     id 6 
     name rhipjoint
     direction -0.564688 -0.757748 0.327026   
     length 2.11457  
     axis 0 0 0  XYZ 
  end
  begin
     id 7 
     name rfemur
     direction -0.34202 -0.939693 0   
     length 7.14609   
     axis 0 0 -20   XYZ
    dof rx ry rz
    limits (-160.0 20.0)
           (-70.0 70.0)
           (-70.0 60.0)
  end
  begin
     id 8 
     name rtibia
     direction -0.34202 -0.939693 0   
     length 6.78101   
     axis 0 0 -20   XYZ
    dof rx
    limits (-10.0 170.0)
 end
 begin
     id 9 
     name rfoot
     direction -0.0992671 -0.272734 0.956955   
     length 1.96168  
     axis -90 -7.62852e-016 -20   XYZ
    dof rx rz
    limits (-45.0 90.0)
           (-20.0 70.0)
  end
  begin
     id 10 
     name rtoes
     direction -1.5356e-011 -4.21891e-011 1   
     length 0.982933   
     axis -90 -7.62852e-016 -20   XYZ
    dof rx
    limits (-90.0 20.0)
  end
  begin
     id 11 
     name lowerback
     direction -0.00596953 0.998668 0.0512524   
     length 1.87557   
     axis 0 0 0   XYZ
    dof rx ry rz
    limits (-20.0 45.0)
           (-30.0 30.0)
           (-30.0 30.0)
  end
  begin
     id 12 
     name upperback
     direction 0.00584879 0.999652 0.0257308   
     length 1.87883   
     axis 0 0 0   XYZ
    dof rx ry rz
    limits (-20.0 45.0)
           (-30.0 30.0)
           (-30.0 30.0)
  end
  begin
     id 13 
     name thorax
     direction 0.010104 0.999947 0.00178881   
     length 1.87779   
     axis 0 0 0   XYZ
    dof rx ry rz
    limits (-20.0 45.0)
           (-30.0 30.0)
           (-30.0 30.0)
  end
  begin
     id 14 
     name lowerneck
     direction 0.0120771 0.995934 -0.0892773   
     length 1.40897   
     axis 0 0 0   XYZ
    dof rx ry rz
    limits (-20.0 45.0)
           (-30.0 30.0)
           (-30.0 30.0)
  end
  begin
     id 15 
     name upperneck
     direction -0.030568 0.999465 -0.0116366   
     length 1.38661   
     axis 0 0 0   XYZ
    dof rx ry rz
    limits (-20.0 45.0)
           (-30.0 30.0)
           (-30.0 30.0)
  end
  begin
     id 16
     name head
     direction -0.0170715 0.999854 -0.00104426  
     length 1.47052  
     axis 0 0 0   XYZ
    dof rx ry rz
    limits (-20.0 45.0)
           (-30.0 30.0)
           (-30.0 30.0)
  end
  begin
     id 17 
     name lclavicle
     direction 0.977763 0.206143 0.038532  
     length 3.02424  
     axis 0 0 0   XYZ
    dof ry rz
    limits (-20.0 10.0)
           (0.0 20.0)
  end
  begin
     id 18 
     name lhumerus
     direction 1 -4.48965e-011 -2.62654e-027   
     length 4.68382   
     axis 180 -30 -90   XYZ
    dof rx ry rz
    limits (-60.0 90.0)
           (-90.0 90.0)
           (-90.0 90.0)
  end
  begin
     id 19
     name lradius
     direction 1 -4.48973e-011 -1.54954e-027   
     length 2.98124   
     axis 180 -30 -90   XYZ
    dof rx
    limits (-10.0 170.0)
  end
  begin
     id 20
     name lwrist
     direction 1 -4.48959e-011 7.20928e-028   
     length 1.49062   
     axis -5.52449e-016 90 90   XYZ
    dof ry
    limits (-180.0 0.0)
 end
  begin
     id 21 
     name lhand
     direction 1 -4.48971e-011 1.44186e-027   
     length 0.707595   
     axis -9.20027e-016 90 90   XYZ
    dof rx rz
    limits (-90.0 90.0)
           (-45.0 45.0)
  end
  begin
     id 22 
     name lfingers
     direction 1 -4.48985e-011 2.88371e-027   
     length 0.570481   
     axis -1.84005e-015 90 90   XYZ
    dof rx
    limits (0.0 90.0)
  end
  begin
     id 23
     name lthumb
     direction 0.707107 -6.34929e-011 0.707107   
     length 0.819101   
     axis -90 45 2.85299e-015   XYZ
    dof rx rz
    limits (-45.0 45.0)
           (-45.0 45.0)
  end
  begin
     id 24 
     name rclavicle
     direction -0.958661 0.284411 -0.00895327   
     length 3.11921  
     axis 0 0 0   XYZ 
    dof ry rz
    limits (-10.0 20.0)
           (-20.0 0.0)
  end
  begin
     id 25 
     name rhumerus
     direction -1 -4.48963e-011 -4.22193e-027  
     length 4.75876   
     axis 180 30 90   XYZ
    dof rx ry rz
    limits (-90.0 60.0)
           (-90.0 90.0)
           (-90.0 90.0)
  end
  begin
     id 26 
     name rradius
     direction -1 -4.48968e-011 -1.07616e-027   
     length 2.93293   
     axis 180 30 90   XYZ
    dof rx
    limits (-10.0 170.0)
  end
  begin
     id 27 
     name rwrist
     direction -1 -4.48965e-011 7.20928e-028   
     length 1.46647   
     axis -5.52449e-016 -90 -90   XYZ
    dof ry
    limits (-180.0 0.0)
  end
  begin
     id 28
     name rhand
     direction -1 -4.48971e-011 1.44186e-027   
     length 0.831748   
     axis -9.20027e-016 -90 -90   XYZ
    dof rx rz
    limits (-90.0 90.0)
           (-45.0 45.0)
  end
  begin
     id 29
     name rfingers
     direction -1 -4.48961e-011 2.88371e-027   
     length 0.670577   
     axis -1.84005e-015 -90 -90   XYZ
    dof rx
    limits (0.0 90.0)
  end
  begin
     id 30
     name rthumb
     direction -0.707107 -6.34929e-011 0.707107   
     length 0.962818   
     axis -90 -45 -2.85299e-015   XYZ
    dof rx rz
    limits (-45.0 45.0)
           (-45.0 45.0)
  end
:hierarchy
  begin
    root lhipjoint rhipjoint lowerback
    lhipjoint lfemur
    lfemur ltibia
    ltibia lfoot
    lfoot ltoes
    rhipjoint rfemur
    rfemur rtibia
    rtibia rfoot
    rfoot rtoes
    lowerback upperback
    upperback thorax
    thorax lowerneck lclavicle rclavicle
    lowerneck upperneck
    upperneck head
    lclavicle lhumerus
    lhumerus lradius
    lradius lwrist
    lwrist lhand lthumb
    lhand lfingers
    rclavicle rhumerus
    rhumerus rradius
    rradius rwrist
    rwrist rhand rthumb
    rhand rfingers
  end

#!OML:ASF E:\id_vita\Project 1\Capture day 1\Session 1\Female.ASF
:FULLY-SPECIFIED
:DEGREES
699
root -10.0017 13.193 -4.17106 -349.101 -80.2197 12.4499
lowerback 15.4651 -1.35124 -1.71868
upperback 5.34287 -2.10696 7.10146
thorax -2.62841 -1.27124 8.969
lowerneck -9.6368 0.72239 -5.43032
upperneck -25.8013 0.328528 3.00902
head -6.36454 -0.22301 1.97986
rclavicle 3.02153e-014 2.46493e-014
rhumerus 26.1314 17.2317 -94.5966
rradius 69.6673
rwrist -21.3563
rhand -28.4386 -8.37005
rfingers 7.12502
rthumb -1.80949 -38.3421
lclavicle 3.02153e-014 2.46493e-014
lhumerus 53.6519 -14.0916 98.814
lradius 27.8754
lwrist 10.9939
lhand 2.21233 52.3224
lfingers 7.12502
lthumb 27.7076 80.3011
rfemur -81.8413 -8.33246 4.84956
rtibia 65.7755
rfoot -5.66359 -17.6168
rtoes -18.5055
lfemur -75.4645 -2.99923 -38.9403
ltibia 74.4772
lfoot -19.5977 13.0938
ltoes 20.3967
700
root -9.96791 13.2149 -4.1453 -349.274 -80.4833 12.4207
lowerback 15.5696 -1.24677 -1.67449
upperback 5.42811 -1.97258 7.14134
thorax -2.61577 -1.21073 8.96795
lowerneck -9.89917 0.683196 -5.44117
upperneck -25.372 0.288981 2.91217
head -6.18059 -0.226431 1.94288
rclavicle -1.98785e-014 -6.44062e-014
rhumerus 25.8431 17.413 -94.5105
rradius 69.6486
rwrist -20.915
rhand -28.2457 -8.42284
rfingers 7.12502
rthumb -1.62318 -38.3964
lclavicle -1.98785e-014 -6.44062e-014
lhumerus 52.9873 -13.8642 98.8587
lradius 28.6645
lwrist 11.5682
lhand 2.94447 52.8231
lfingers 7.12502
lthumb 28.4075 80.6872
rfemur -82.0679 -8.64813 5.40159
rtibia 68.5621
rfoot -6.55816 -17.3707
rtoes -14.6422
lfemur -75.2456 -2.57777 -39.2434
ltibia 74.2063
lfoot -19.4906 12.9359
ltoes 19.6554
701
root -9.93847 13.2333 -4.12679 -349.394 -80.7715 12.3508
lowerback 15.6306 -1.11373 -1.7053
upperback 5.52392 -1.81298 7.18442
thorax -2.56991 -1.13954 9.00748
lowerneck -10.3789 0.722669 -5.1786
upperneck -24.7042 0.314832 2.54019
head -5.88858 -0.202329 1.76502
rclavicle -6.36111e-015 5.725e-014
rhumerus 25.545 17.5984 -94.3898
rradius 69.7194
rwrist -20.5646
rhand -28.2668 -8.56169
rfingers 7.12502
rthumb -1.64355 -38.5351
lclavicle -6.36111e-015 5.725e-014
lhumerus 52.4074 -13.7541 98.8016
lradius 29.3716
lwrist 12.4677
lhand 2.40901 52.775
lfingers 7.12502
lthumb 27.8957 80.7234
rfemur -82.2679 -8.9567 6.10238
rtibia 71.3242
rfoot -7.53553 -17.3757
rtoes -10.2542
lfemur -75.0839 -2.17489 -39.4359
ltibia 73.9546
lfoot -19.3712 12.6932
ltoes 19.6656
702
root -9.90889 13.2316 -4.10131 -349.652 -80.9668 12.706
lowerback 15.4732 -1.00607 -1.54582
upperback 5.52617 -1.65134 7.13548
thorax -2.51803 -1.05771 8.82183
lowerneck -10.4096 0.722863 -4.81802
upperneck -24.4914 0.263599 2.24669
head -5.81123 -0.234827 1.606
rclavicle -1.90833e-014 -2.38542e-014
rhumerus 25.2655 17.5926 -94.3546
rradius 69.795
rwrist -20.221
rhand -28.4873 -8.67419
rfingers 7.12502
rthumb -1.85658 -38.6459
lclavicle -1.90833e-014 -2.38542e-014
lhumerus 51.7941 -13.7164 98.9077
lradius 30.1925
lwrist 12.6809
lhand 3.93908 53.4336
lfingers 7.12502
lthumb 29.3575 81.1353
rfemur -82.7516 -9.56813 6.83972
rtibia 73.9957
rfoot -7.74715 -17.0174
rtoes -9.05825
lfemur -75.2565 -2.15907 -39.6001
ltibia 73.7031
lfoot -19.2035 12.583
ltoes 20.1708
703
root -9.87747 13.2415 -4.08145 -349.899 -81.1951 12.9387
lowerback 15.385 -0.813701 -1.49648
upperback 5.57111 -1.3974 7.0821
thorax -2.4681 -0.932571 8.68386
lowerneck -10.1598 0.616011 -4.64034
upperneck -24.5926 0.098008 2.20666
head -5.87558 -0.325905 1.5671
rclavicle 1.90833e-014 -3.33958e-014
rhumerus 25.0911 17.3949 -94.3512
rradius 69.7445
rwrist -19.9256
rhand -28.5552 -8.54876
rfingers 7.12502
rthumb -1.92218 -38.5198
lclavicle 1.90833e-014 -3.33958e-014
lhumerus 51.1574 -14.7361 97.8963
lradius 31.5095
lwrist 16.388
lhand -1.75908 52.5058
lfingers 7.12502
lthumb 23.9044 81.038
rfemur -82.9724 -10.0713 7.56012
rtibia 76.4999
rfoot -7.74229 -16.5648
rtoes -8.98075
lfemur -75.2727 -2.06835 -39.7208
ltibia 73.3852
lfoot -18.91 12.5115
ltoes 20.8528
704
root -9.85064 13.2767 -4.06904 -350.22 -81.5007 13.0885
lowerback 15.3492 -0.644969 -1.70453
upperback 5.68088 -1.21737 7.09115
thorax -2.35559 -0.853328 8.78183
lowerneck -10.3038 0.603372 -4.45
upperneck -24.3089 0.0664691 2.05492
head -5.75944 -0.342663 1.48178
rclavicle -2.46493e-014 -2.70347e-014
rhumerus 24.9508 17.474 -94.3457
rradius 69.6787
rwrist -19.7562
rhand -28.5699 -8.36494
rfingers 7.12502
rthumb -1.9363 -38.3359
lclavicle -2.46493e-014 -2.70347e-014
lhumerus 50.462 -14.7094 97.8395
lradius 32.4055
lwrist 16.9985
lhand -0.623725 52.7201
lfingers 7.12502
lthumb 24.9928 81.1054
rfemur -82.8098 -10.3495 8.29666
rtibia 78.8417
rfoot -7.71866 -16.4088
rtoes -7.4524
lfemur -74.9943 -1.71558 -39.8545
ltibia 72.9937
lfoot -18.5873 12.3821
ltoes 22.0788
